<mxfile host="app.diagrams.net" modified="2021-03-03T10:05:37.435Z" agent="5.0 (Windows)" etag="veLsLY3Jjs6wIKPC-KWs" version="14.4.3" type="github">
  <diagram id="_KgP9zd1s0jClfJV7wFN" name="Page-1">
    <mxGraphModel dx="2031" dy="1090" grid="1" gridSize="10" guides="1" tooltips="1" connect="1" arrows="1" fold="1" page="1" pageScale="1" pageWidth="1169" pageHeight="826" math="0" shadow="0">
      <root>
        <mxCell id="0" />
        <mxCell id="1" parent="0" />
        <mxCell id="tG5PF8i_wYBfSkv8dYwh-1" value="HELLO WORLD" style="shape=hexagon;perimeter=hexagonPerimeter2;whiteSpace=wrap;html=1;fixedSize=1;" vertex="1" parent="1">
          <mxGeometry x="525" y="373" width="120" height="80" as="geometry" />
        </mxCell>
      </root>
    </mxGraphModel>
  </diagram>
</mxfile>
